<?xml version="1.0" standalone="no"?>
<!DOCTYPE svg PUBLIC "-//W3C//DTD SVG 20010904//EN"
 "http://www.w3.org/TR/2001/REC-SVG-20010904/DTD/svg10.dtd">
<svg version="1.0" xmlns="http://www.w3.org/2000/svg"
 width="512.000000pt" height="512.000000pt" viewBox="0 0 512.000000 512.000000"
 preserveAspectRatio="xMidYMid meet">
<metadata>
Created by potrace 1.14, written by Peter Selinger 2001-2017
</metadata>
<g transform="translate(0.000000,512.000000) scale(0.100000,-0.100000)"
fill="#000000" stroke="none">
<path d="M1160 4418 c0 -36 199 -2099 207 -2138 8 -41 81 654 84 790 0 47 -26
365 -60 708 -34 342 -61 631 -61 642 0 18 -7 20 -85 20 -81 0 -85 -1 -85 -22z"/>
<path d="M2760 2560 l0 -1880 50 0 50 0 0 1880 0 1880 -50 0 -50 0 0 -1880z"/>
<path d="M3010 2560 l0 -1880 65 0 65 0 0 1880 0 1880 -65 0 -65 0 0 -1880z"/>
<path d="M4137 4433 c-4 -3 -7 -339 -7 -745 l0 -738 95 0 95 0 0 745 0 745
-88 0 c-49 0 -92 -3 -95 -7z"/>
<path d="M641 1858 l-1 -1178 100 0 100 0 0 322 0 322 -95 835 c-52 460 -97
845 -99 856 -2 11 -4 -510 -5 -1157z"/>
<path d="M1852 2048 c-63 -540 -124 -1070 -136 -1175 l-22 -193 71 0 71 0 67
588 68 587 -3 588 -3 589 -113 -984z"/>
<path d="M4130 1455 l0 -775 95 0 95 0 0 775 0 775 -95 0 -95 0 0 -775z"/>
</g>
</svg>
