<?xml version="1.0" encoding="utf-8"?>
<!-- Generator: Adobe Illustrator 27.0.1, SVG Export Plug-In . SVG Version: 6.00 Build 0)  -->
<svg version="1.1" id="Ebene_1" xmlns="http://www.w3.org/2000/svg" xmlns:xlink="http://www.w3.org/1999/xlink" x="0px" y="0px"
	 viewBox="0 0 500.07 355.13" style="enable-background:new 0 0 500.07 355.13;" xml:space="preserve">
<style type="text/css">
	.st0{fill:#FFFFFF;}
</style>
<g>
	<path class="st0" d="M424.01,0v143.06h-37.94V0h-76.08v0l-38.04,0c11.57,0.72,20.76,4.39,27.27,11.35
		c6.89,7.36,10.41,17.87,10.77,31.32v312.45h76.08V206.48h37.94v148.65h38.02c11.57-0.72,20.76-4.39,27.27-11.35
		c6.89-7.36,10.41-17.87,10.77-31.32V0H424.01z"/>
	<path class="st0" d="M271.95,312.45V0H145.41l-19.05,214.6L107.31,0H38.04C26.47,0.72,17.28,4.39,10.77,11.35
		C3.87,18.71,0.36,29.22,0,42.67v312.45h56.82v-235.4l38.06,235.4h62.96l38.03-232.86v232.86h76.08v0l0,0l38.04,0
		c-11.57-0.72-20.76-4.39-27.27-11.35C275.82,336.41,272.31,325.9,271.95,312.45z"/>
</g>
</svg>
