<?xml version="1.0" encoding="utf-8"?>
<!-- Generator: Adobe Illustrator 27.0.1, SVG Export Plug-In . SVG Version: 6.00 Build 0)  -->
<svg version="1.1" id="Ebene_1" xmlns="http://www.w3.org/2000/svg" xmlns:xlink="http://www.w3.org/1999/xlink" x="0px" y="0px"
	 viewBox="0 0 256 256" style="enable-background:new 0 0 256 256;" xml:space="preserve">
<path d="M253.1,114.5L172.6,34c-3.9-3.9-10.2-3.9-14.1,0L136.4,56c-3.9,3.9-3.9,10.2,0,14.1l32.2,32.2h-158
	c-6.4,0-10.6,5.1-10.6,12.8v25.6c0,7.7,4.2,12.8,10.6,12.8h158l-32.2,32.2c-3.9,3.9-3.9,10.2,0,14.1l22.1,22.1
	c3.9,3.9,10.2,3.9,14.1,0l80.5-80.5c1.9-1.9,2.9-4.4,2.9-7.1v-12.9C256,118.9,254.9,116.3,253.1,114.5z"/>
</svg>
