<?xml version="1.0" encoding="utf-8"?>
<!-- Generator: Adobe Illustrator 27.0.1, SVG Export Plug-In . SVG Version: 6.00 Build 0)  -->
<svg version="1.2" baseProfile="tiny" id="Ebene_1" xmlns="http://www.w3.org/2000/svg" xmlns:xlink="http://www.w3.org/1999/xlink"
	 x="0px" y="0px" viewBox="0 0 256 256" overflow="visible" xml:space="preserve">
<path d="M244.59,0H10.86C7.52,0,5.29,2.23,5.29,5.57v16.7c0,1.67,0.63,2.71,1.74,3.83l87.3,92.76v98.2c0,2.23,1.11,3.93,2.78,5.04
	l55.65,33.39c0.56,0.56,1.67,0.52,2.78,0.52c1.11,0,1.67,0.03,2.78-0.52c1.67-1.11,2.78-2.82,2.78-5.04V118.85l87.3-92.76
	c1.11-1.11,1.74-2.16,1.74-3.83V5.57C250.16,2.23,247.93,0,244.59,0z"/>
</svg>
