<?xml version="1.0" encoding="utf-8"?>
<!-- Generator: Adobe Illustrator 27.0.1, SVG Export Plug-In . SVG Version: 6.00 Build 0)  -->
<svg version="1.1" id="Ebene_1" xmlns="http://www.w3.org/2000/svg" xmlns:xlink="http://www.w3.org/1999/xlink" x="0px" y="0px"
	 viewBox="0 0 256 256" style="enable-background:new 0 0 256 256;" xml:space="preserve">
<g>
	<circle cx="128" cy="129.6" r="50.6"/>
	<path d="M191.2,0H64.8C30,0,0,28.4,0,64.8v126.4C0,226,28.4,256,64.8,256h126.4c34.8,0,64.8-28.4,64.8-64.8V64.8
		C256,30,227.6,0,191.2,0z M205.4,129.6c0,42.7-34.8,77.4-77.4,77.4s-77.4-34.8-77.4-77.4S85.3,52.1,128,52.1
		C172.2,52.1,207,86.9,205.4,129.6z M211.8,66.4c-11.1,0-19-7.9-19-19s9.5-19,19-19c9.5,0,17.4,7.9,19,19
		C230.7,58.5,222.8,66.4,211.8,66.4z"/>
</g>
</svg>
