<?xml version="1.0" encoding="utf-8"?>
<!-- Generator: Adobe Illustrator 27.0.1, SVG Export Plug-In . SVG Version: 6.00 Build 0)  -->
<svg version="1.1" id="Ebene_1" xmlns="http://www.w3.org/2000/svg" xmlns:xlink="http://www.w3.org/1999/xlink" x="0px" y="0px"
	 viewBox="0 0 256 256" style="enable-background:new 0 0 256 256;" xml:space="preserve">
<path d="M107.2,0.1C50.3-2.4,3.6,42.6,3,98.8c-0.5,54.2,43,99.3,97.1,100.7c18,0.5,34.8-3.9,49.5-11.8c3.9-2.1,8.8-1.5,11.9,1.7
	l63.5,63.5c3.9,3.9,10.2,3.9,14.1,0l10.8-10.8c3.9-3.9,3.9-10.2,0-14.2l-62-61.9c-3.3-3.3-4-8.6-1.4-12.5c11-17,17-37.4,15.8-59.4
	C199.6,45.1,156.2,2.2,107.2,0.1z M88.6,24.7c53.4-9.5,98.7,35.9,89.2,89.2c-5.5,30.9-29.9,55.3-60.8,60.8
	c-53.4,9.5-98.7-35.9-89.2-89.2C33.3,54.7,57.7,30.2,88.6,24.7z"/>
</svg>
