<?xml version="1.0" encoding="utf-8"?>
<!-- Generator: Adobe Illustrator 27.0.1, SVG Export Plug-In . SVG Version: 6.00 Build 0)  -->
<svg version="1.2" baseProfile="tiny" id="Ebene_1" xmlns="http://www.w3.org/2000/svg" xmlns:xlink="http://www.w3.org/1999/xlink"
	 x="0px" y="0px" viewBox="0 0 256 256" overflow="visible" xml:space="preserve">
<path d="M115.2,0c-7.68,0-12.8,5.12-12.8,12.8v89.6H12.8c-7.68,0-12.8,5.12-12.8,12.8v25.6c0,7.68,5.12,12.8,12.8,12.8h89.6v89.6
	c0,7.68,5.12,12.8,12.8,12.8h25.6c7.68,0,12.8-5.12,12.8-12.8v-89.6h89.6c7.68,0,12.8-5.12,12.8-12.8v-25.6
	c0-7.68-5.12-12.8-12.8-12.8h-89.6V12.8c0-7.68-5.12-12.8-12.8-12.8H115.2z"/>
</svg>
