<?xml version="1.0" encoding="utf-8"?>
<!-- Generator: Adobe Illustrator 27.0.1, SVG Export Plug-In . SVG Version: 6.00 Build 0)  -->
<svg version="1.2" baseProfile="tiny" id="Ebene_1" xmlns="http://www.w3.org/2000/svg" xmlns:xlink="http://www.w3.org/1999/xlink"
	 x="0px" y="0px" viewBox="0 0 256 256" overflow="visible" xml:space="preserve">
<path d="M255.5,98.14c-1.21-3.73-4.46-6.46-8.35-7.03l-75.92-11.03l-33.96-68.79c-3.49-7.06-15.06-7.06-18.55,0L84.77,80.08
	L8.85,91.11c-3.89,0.57-7.13,3.29-8.35,7.03c-1.21,3.75-0.21,7.86,2.62,10.6l54.94,53.56l-12.97,75.61
	c-0.66,3.88,0.93,7.81,4.11,10.12c3.2,2.33,7.42,2.63,10.9,0.79l67.9-35.7l67.89,35.69c1.51,0.8,3.18,1.19,4.82,1.19
	c2.14,0,4.27-0.66,6.08-1.98c3.19-2.31,4.78-6.24,4.11-10.12l-12.97-75.61l54.94-53.56C255.7,105.99,256.71,101.9,255.5,98.14z"/>
</svg>
