<?xml version="1.0" encoding="utf-8"?>
<!-- Generator: Adobe Illustrator 27.0.1, SVG Export Plug-In . SVG Version: 6.00 Build 0)  -->
<svg version="1.1" id="Ebene_1" xmlns="http://www.w3.org/2000/svg" xmlns:xlink="http://www.w3.org/1999/xlink" x="0px" y="0px"
	 viewBox="0 0 256 256" style="enable-background:new 0 0 256 256;" xml:space="preserve">
<path d="M250.7,66.3c-1.4-5.5-4.3-10.5-8.3-14.5c-4-4-9-6.9-14.5-8.4c-33.2-3.9-66.6-5.7-100-5.3c-33.4-0.4-66.8,1.4-100,5.3
	c-5.5,1.5-10.5,4.3-14.5,8.4c-4,4-6.8,9-8.3,14.5C1.7,86.7-0.1,107.4,0,128.1c-0.1,20.8,1.6,41.6,5.3,62.1
	c1.5,5.4,4.4,10.3,8.4,14.2c4,3.9,8.9,6.7,14.4,8.2c33.2,3.9,66.6,5.7,100,5.3c33.4,0.4,66.8-1.4,100-5.3c5.4-1.4,10.4-4.2,14.3-8.2
	c4-3.9,6.9-8.8,8.4-14.2c3.6-20.5,5.4-41.3,5.3-62.1C256.1,107.4,254.3,86.7,250.7,66.3z M101.8,166.3V90.2l67,37.9l-67,38.1V166.3z
	"/>
</svg>
